<?xml version="1.0" standalone="no"?>
<!DOCTYPE svg PUBLIC "-//W3C//DTD SVG 20010904//EN"
 "http://www.w3.org/TR/2001/REC-SVG-20010904/DTD/svg10.dtd">
<svg version="1.0" xmlns="http://www.w3.org/2000/svg"
 width="131.000000pt" height="131.000000pt" viewBox="0 0 131.000000 131.000000"
 preserveAspectRatio="xMidYMid meet">

<g transform="translate(0.000000,131.000000) scale(0.100000,-0.100000)"
fill="#000000" stroke="none">
<path d="M150 1180 c-13 -13 -20 -33 -20 -56 0 -39 3 -43 231 -279 58 -60 124
-130 147 -155 l41 -46 -57 -59 c-32 -33 -126 -132 -210 -219 -139 -146 -152
-162 -152 -196 0 -47 33 -80 80 -80 37 0 43 6 318 293 73 76 136 137 141 135
4 -2 97 -96 205 -210 108 -113 204 -209 212 -212 58 -22 114 15 114 75 0 31
-17 52 -172 214 -94 99 -189 199 -210 221 l-40 41 134 139 c284 295 288 300
288 337 0 45 -34 77 -82 77 -33 0 -49 -14 -243 -215 -114 -119 -211 -214 -214
-213 -3 2 -98 99 -210 216 -196 205 -205 212 -242 212 -26 0 -46 -7 -59 -20z"/>
</g>
</svg>
