<?xml version="1.0" standalone="no"?>
<!DOCTYPE svg PUBLIC "-//W3C//DTD SVG 20010904//EN"
 "http://www.w3.org/TR/2001/REC-SVG-20010904/DTD/svg10.dtd">
<svg version="1.0" xmlns="http://www.w3.org/2000/svg"
 width="275.000000pt" height="183.000000pt" viewBox="0 0 275.000000 183.000000"
 preserveAspectRatio="xMidYMid meet">

<g transform="translate(0.000000,183.000000) scale(0.100000,-0.100000)"
fill="#000000" stroke="none">
<path d="M1378 1789 c-65 -18 -127 -93 -128 -155 0 -22 24 -39 41 -28 5 3 9
-5 9 -16 0 -17 -4 -20 -17 -15 -10 4 -27 8 -38 9 -26 1 -32 -35 -10 -57 8 -9
14 -21 13 -28 -2 -6 3 -14 11 -17 10 -3 13 2 8 23 -3 17 0 34 8 41 10 11 13 6
13 -26 0 -22 -3 -42 -9 -45 -5 -4 -9 -25 -10 -48 -1 -40 -16 -106 -18 -79 -1
7 -5 11 -11 7 -5 -3 -6 -13 -3 -23 10 -27 104 -132 118 -132 22 0 64 40 59 55
-4 8 1 18 10 21 23 9 20 23 -4 17 -20 -5 -70 20 -70 35 0 4 16 6 36 4 26 -3
35 -1 30 7 -4 6 -13 11 -21 11 -18 0 -28 30 -11 36 7 3 26 6 42 8 15 2 30 8
32 15 2 6 10 11 17 11 18 0 27 28 15 48 -8 15 -9 14 -10 -5 0 -18 -6 -23 -27
-24 -16 0 -22 -3 -15 -6 6 -2 12 -9 12 -14 0 -11 -37 -11 -64 0 -15 6 -9 10
30 23 l49 16 -27 11 c-16 6 -28 15 -28 21 0 6 -4 8 -10 5 -5 -3 -10 -2 -10 3
0 6 7 12 15 16 8 3 14 11 13 18 -2 7 5 12 15 12 9 -1 17 3 17 9 0 6 6 3 13 -8
10 -12 16 -14 21 -7 10 16 29 15 20 0 -5 -10 -4 -10 6 -1 16 15 4 34 -18 26
-15 -6 -15 -4 2 15 17 19 17 22 3 22 -10 0 -17 -5 -17 -12 0 -6 -3 -8 -7 -5
-3 4 -12 2 -19 -4 -15 -12 -54 8 -54 28 0 17 -62 17 -78 1 -9 -9 -12 -9 -12
-1 0 7 5 15 10 18 8 5 7 11 0 20 -6 8 -10 26 -8 42 l3 28 95 -3 c83 -3 97 -6
112 -25 24 -30 22 -16 -3 27 -32 55 -94 88 -141 75z m-3 -220 c0 -8 4 -20 9
-27 5 -9 -3 -24 -26 -45 -32 -31 -33 -31 -36 -9 -2 12 -8 22 -13 22 -5 0 -9 5
-9 11 0 6 6 9 14 6 10 -4 12 0 8 16 -5 19 -3 20 10 9 13 -10 18 -9 29 4 11 13
10 17 -2 26 -12 8 -12 9 1 5 8 -2 15 -10 15 -18z m-30 -185 c-7 -9 -13 -3 -22
20 -19 51 -15 61 10 25 16 -24 20 -37 12 -45z"/>
<path d="M687 1393 c-4 -3 -7 -13 -7 -22 0 -9 -6 -28 -14 -43 -8 -14 -17 -44
-20 -65 -9 -49 -26 -79 -26 -45 0 13 -4 21 -9 18 -5 -3 -9 -38 -9 -78 1 -40
-2 -95 -6 -123 -4 -35 -1 -67 10 -105 10 -30 18 -78 19 -105 2 -50 18 -93 39
-107 19 -13 86 -9 117 7 16 9 53 34 82 55 l52 40 7 -48 c16 -118 9 -211 -23
-306 -17 -50 -35 -93 -38 -96 -11 -8 -40 -108 -51 -173 -5 -31 -12 -62 -15
-67 -10 -16 42 -60 69 -60 17 0 35 13 57 40 40 49 49 40 49 -47 l0 -63 360 0
360 0 0 25 c0 16 6 25 16 25 18 0 18 -10 -13 230 -9 69 -20 127 -24 130 -3 3
-10 20 -14 39 -5 24 -4 32 4 26 9 -5 11 17 8 82 -3 48 -1 108 3 133 6 35 8 38
9 15 0 -17 10 -38 21 -48 11 -9 20 -23 20 -30 0 -16 37 -57 51 -57 6 0 7 6 4
13 -4 6 -1 5 7 -3 7 -8 24 -14 38 -12 20 2 22 1 10 -7 -13 -9 -13 -11 1 -11
25 0 67 52 64 80 -1 14 4 39 13 55 l15 30 -21 -19 c-12 -10 -20 -22 -17 -26 2
-4 -2 -7 -10 -7 -21 0 -19 11 6 33 29 26 52 73 44 92 -5 12 -12 9 -39 -17 -38
-37 -72 -39 -69 -3 2 14 -3 22 -12 22 -18 0 -20 -31 -2 -50 10 -12 9 -12 -4
-2 -9 6 -18 10 -20 8 -2 -2 -10 2 -17 10 -10 11 -10 14 0 14 7 0 19 9 26 20 7
11 9 20 5 19 -25 -4 -43 3 -43 17 0 14 2 15 17 3 15 -13 15 -12 5 8 -7 12 -21
24 -32 28 -11 3 -19 11 -17 17 1 6 -4 13 -12 16 -8 2 -11 0 -7 -6 3 -6 0 -16
-7 -24 -19 -19 -28 -48 -15 -48 7 0 6 -6 -3 -16 -9 -11 -10 -17 -1 -23 6 -4 8
-12 2 -20 -6 -10 -11 -1 -18 30 l-10 44 -2 -35 c-2 -19 -3 -43 -4 -53 -1 -10
-7 -21 -15 -26 -11 -7 -10 -11 5 -20 17 -9 17 -10 2 -11 -10 0 -18 -7 -18 -16
0 -8 -4 -12 -10 -9 -5 3 -10 1 -10 -5 0 -6 -5 -8 -10 -5 -6 4 -17 1 -25 -5
-13 -10 -15 -8 -15 14 0 39 -20 31 -21 -9 -2 -48 -3 -52 -13 -62 -5 -4 -7 4
-4 19 3 16 1 25 -5 21 -5 -3 -6 4 -2 18 6 19 5 22 -5 12 -17 -16 -26 -113 -12
-113 6 0 9 -7 6 -15 -14 -35 -24 3 -24 90 0 89 1 94 23 98 21 4 21 4 -3 6 -25
1 -25 1 -27 111 0 61 2 110 5 110 4 0 7 73 8 163 1 182 -12 162 -20 -33 -2
-69 -10 -161 -16 -205 -6 -43 -9 -92 -6 -107 3 -15 1 -30 -4 -33 -15 -9 -12
-221 4 -234 17 -14 5 -86 -17 -108 -17 -17 -49 -11 -46 9 3 26 -3 73 -8 55 -2
-9 -9 -17 -15 -17 -6 0 -8 -10 -4 -25 6 -22 3 -25 -19 -25 -22 0 -160 29 -220
45 -17 5 -25 -2 -43 -42 l-23 -48 7 40 c3 22 10 41 15 43 11 4 -15 32 -30 32
-6 0 -12 3 -12 8 -6 31 -9 72 -13 172 -2 63 -7 125 -11 138 -7 22 8 32 20 12
3 -5 11 -10 17 -10 6 0 5 7 -4 18 -17 19 -29 82 -16 82 14 0 9 38 -8 55 -9 9
-23 14 -30 11 -7 -3 -16 0 -20 6 -4 6 -3 8 3 5 6 -4 10 6 11 24 0 16 -3 27 -8
24 -13 -8 -17 4 -25 65 -4 30 -10 57 -15 60 -4 3 -10 15 -14 28 -4 12 -11 22
-15 22 -13 0 -49 -44 -60 -73 -15 -40 -14 -52 4 -37 8 7 25 10 40 6 23 -6 25
-10 25 -70 0 -34 -3 -65 -6 -69 -4 -3 -22 0 -41 8 -43 18 -66 19 -60 3 2 -7
11 -12 20 -12 13 1 14 -3 6 -25 -6 -14 -7 -22 -3 -19 8 9 39 -29 49 -61 10
-32 -12 -18 -27 17 l-11 27 -7 -35 -7 -35 -3 30 c-2 25 -3 26 -7 8 -2 -13 -8
-23 -13 -23 -6 0 -6 10 0 24 5 15 5 38 -1 60 -11 40 -23 50 -13 11 3 -14 4
-25 0 -25 -3 0 -10 19 -16 43 -6 23 -17 47 -24 52 -7 6 -10 28 -8 59 3 37 9
50 23 53 21 6 25 23 8 40 -7 7 -7 13 -1 17 6 3 8 15 5 26 -3 11 -9 17 -14 15
-4 -3 -6 -13 -3 -23 3 -10 -4 -6 -18 10 -16 19 -29 26 -44 22 -17 -5 -22 0
-26 21 -5 22 -2 26 13 22 11 -3 19 -1 19 4 0 5 -5 9 -11 9 -5 0 -7 5 -3 11 3
6 0 15 -7 20 -10 6 -8 9 9 9 15 0 22 6 22 21 0 11 4 18 9 14 6 -3 6 7 1 26
-11 37 -14 41 -23 32z m53 -253 c0 -5 -2 -10 -4 -10 -3 0 -8 5 -11 10 -3 6 -1
10 4 10 6 0 11 -4 11 -10z m150 -35 c11 -13 10 -14 -4 -9 -9 3 -16 10 -16 15
0 13 6 11 20 -6z m-158 -167 c-6 -6 -15 -8 -19 -4 -4 4 -1 11 7 16 19 12 27 3
12 -12z m152 -49 c-9 -15 -22 -10 -29 11 -4 11 -11 17 -17 14 -7 -4 -8 -2 -4
4 5 9 14 7 31 -4 14 -9 22 -20 19 -25z m101 21 c3 -6 -1 -7 -9 -4 -18 7 -21
14 -7 14 6 0 13 -4 16 -10z m-5 -36 c0 -2 -7 -4 -15 -4 -8 0 -15 4 -15 10 0 5
7 7 15 4 8 -4 15 -8 15 -10z m7 -36 c-3 -8 -6 -5 -6 6 -1 11 2 17 5 13 3 -3 4
-12 1 -19z m919 -76 c-18 -16 -18 -16 -6 6 6 13 14 21 18 18 3 -4 -2 -14 -12
-24z m-41 -42 c27 23 26 4 -1 -23 -32 -32 -40 -33 -54 -8 -13 25 -13 34 0 26
6 -3 10 -1 10 6 0 8 4 8 15 -1 12 -10 18 -10 30 0z m15 -77 c0 -5 -12 -14 -28
-20 l-27 -13 24 20 c25 22 31 24 31 13z m-383 -45 c-3 -7 -5 -2 -5 12 0 14 2
19 5 13 2 -7 2 -19 0 -25z m379 -7 c-16 -18 -72 -19 -61 0 3 4 12 6 20 3 7 -3
22 -1 32 5 26 15 28 13 9 -8z m-377 -178 c1 -17 6 -35 12 -39 6 -3 8 -18 5
-33 -3 -14 -3 -20 0 -13 9 20 23 14 19 -9 -11 -55 -30 -33 -44 52 -6 36 -11
77 -10 90 0 22 1 23 9 4 5 -11 9 -34 9 -52z m-454 27 c3 -5 2 -10 -4 -10 -5 0
-13 5 -16 10 -3 6 -2 10 4 10 5 0 13 -4 16 -10z m484 -43 c1 -10 -3 -15 -9
-12 -5 3 -10 21 -9 38 0 27 2 29 9 12 5 -11 9 -28 9 -38z m38 1 c-3 -8 -6 -5
-6 6 -1 11 2 17 5 13 3 -3 4 -12 1 -19z m-10 -110 c-3 -8 -6 -5 -6 6 -1 11 2
17 5 13 3 -3 4 -12 1 -19z m-18 -60 c9 2 11 -3 7 -14 -4 -10 -2 -20 4 -24 6
-4 8 -15 4 -24 -5 -14 -11 -7 -26 30 -10 27 -17 58 -17 69 1 13 4 9 8 -10 4
-17 13 -29 20 -27z m8 20 c-3 -8 -6 -5 -6 6 -1 11 2 17 5 13 3 -3 4 -12 1 -19z
m33 -23 c-7 -9 -15 -13 -17 -11 -6 6 20 36 26 30 2 -2 -2 -10 -9 -19z m74 16
c3 -5 -1 -11 -9 -14 -9 -4 -12 -1 -8 9 6 16 10 17 17 5z m-48 -49 c-14 -14
-16 -14 -16 -1 0 20 23 44 29 28 2 -6 -4 -18 -13 -27z m4 -29 c0 -5 -7 -17
-15 -27 -15 -20 -20 -10 -9 18 6 16 24 22 24 9z"/>
<path d="M756 1343 c-11 -11 -6 -23 8 -23 8 0 17 4 20 9 7 10 -19 23 -28 14z"/>
<path d="M1195 1317 c-12 -25 -8 -57 6 -57 5 0 9 18 9 40 0 22 -1 40 -2 40 -2
0 -8 -10 -13 -23z"/>
<path d="M1105 1250 c3 -5 10 -10 16 -10 5 0 9 5 9 10 0 6 -7 10 -16 10 -8 0
-12 -4 -9 -10z"/>
<path d="M1538 1233 c7 -3 16 -2 19 1 4 3 -2 6 -13 5 -11 0 -14 -3 -6 -6z"/>
<path d="M735 1220 c-19 -8 -19 -9 2 -9 12 -1 25 4 28 9 7 12 -2 12 -30 0z"/>
<path d="M1385 1190 c-3 -6 -2 -9 4 -8 5 2 17 -6 25 -17 16 -19 16 -19 8 4
-10 28 -27 38 -37 21z"/>
<path d="M1094 1120 c3 -36 11 -144 16 -240 12 -203 19 -270 31 -270 13 0 22
87 16 154 -8 90 -57 409 -63 416 -3 3 -3 -24 0 -60z"/>
<path d="M1352 1150 c0 -14 2 -19 5 -12 2 6 2 18 0 25 -3 6 -5 1 -5 -13z"/>
<path d="M1883 1074 l-30 -46 35 -39 c19 -21 36 -39 38 -39 1 0 8 17 14 38 7
20 23 54 36 74 13 21 24 42 24 48 0 5 -20 10 -44 10 -41 0 -46 -3 -73 -46z"/>
<path d="M741 1044 c0 -11 3 -14 6 -6 3 7 2 16 -1 19 -3 4 -6 -2 -5 -13z"/>
<path d="M1330 1051 c0 -5 7 -14 15 -21 16 -14 18 -10 9 14 -6 17 -24 22 -24
7z"/>
<path d="M1347 986 c-4 -10 -7 -25 -6 -34 0 -11 4 -9 10 7 5 13 8 29 6 35 -2
5 -6 2 -10 -8z"/>
<path d="M785 980 c3 -5 15 -10 26 -10 10 0 19 5 19 10 0 6 -12 10 -26 10 -14
0 -23 -4 -19 -10z"/>
<path d="M1743 976 c-13 -6 -23 -14 -23 -19 0 -9 36 9 45 23 3 6 5 9 3 9 -2
-1 -13 -6 -25 -13z"/>
<path d="M1830 978 c0 -11 29 -37 43 -38 11 0 -16 39 -30 44 -7 3 -13 0 -13
-6z"/>
<path d="M840 966 c0 -2 9 -6 20 -9 11 -3 20 -1 20 4 0 5 -9 9 -20 9 -11 0
-20 -2 -20 -4z"/>
<path d="M1532 945 c0 -16 2 -22 5 -12 2 9 2 23 0 30 -3 6 -5 -1 -5 -18z"/>
<path d="M1788 935 c2 -14 7 -25 11 -25 4 0 26 -16 49 -36 56 -48 53 -25 -4
36 -53 56 -63 61 -56 25z"/>
<path d="M1333 845 c0 -44 2 -61 4 -37 2 23 2 59 0 80 -2 20 -4 1 -4 -43z"/>
<path d="M1596 911 c-4 -5 3 -7 14 -4 23 6 26 13 6 13 -8 0 -17 -4 -20 -9z"/>
<path d="M1748 915 c-12 -12 4 -42 33 -59 16 -9 29 -14 30 -9 0 4 4 -2 9 -14
5 -13 14 -23 20 -23 17 0 12 14 -15 40 -14 14 -36 35 -48 48 -13 12 -26 20
-29 17z"/>
<path d="M1333 630 c0 -25 2 -35 4 -22 2 12 2 32 0 45 -2 12 -4 2 -4 -23z"/>
<path d="M1194 606 c20 -60 136 -201 136 -166 0 6 -7 13 -16 17 -8 3 -29 29
-45 57 -34 59 -85 121 -75 92z"/>
<path d="M1089 595 c0 0 -2 -10 -3 -22 -3 -25 23 -40 36 -21 4 7 5 -2 2 -22
-4 -19 -11 -39 -15 -44 -13 -15 -11 -26 6 -26 9 0 12 6 9 15 -4 8 -1 15 5 15
6 0 11 -4 11 -9 0 -7 51 -31 67 -31 2 0 -7 17 -20 38 -13 20 -31 53 -41 72
-10 23 -23 36 -36 36 -11 0 -20 0 -21 -1z"/>
<path d="M1330 541 c0 -11 4 -22 9 -25 4 -3 6 6 3 19 -5 30 -12 33 -12 6z"/>
<path d="M1062 528 c-16 -16 -15 -33 1 -46 16 -14 32 -3 42 28 4 14 4 22 0 18
-5 -4 -13 -3 -20 2 -7 6 -16 5 -23 -2z"/>
</g>
</svg>
