<?xml version="1.0" standalone="no"?>
<!DOCTYPE svg PUBLIC "-//W3C//DTD SVG 20010904//EN"
 "http://www.w3.org/TR/2001/REC-SVG-20010904/DTD/svg10.dtd">
<svg version="1.0" xmlns="http://www.w3.org/2000/svg"
 width="127.000000pt" height="127.000000pt" viewBox="0 0 127.000000 127.000000"
 preserveAspectRatio="xMidYMid meet">
<metadata>
Created by potrace 1.16, written by Peter Selinger 2001-2019
</metadata>
<g transform="translate(0.000000,127.000000) scale(0.100000,-0.100000)"
fill="#000000" stroke="none">
<path d="M1103 1107 l-133 -52 0 -117 0 -116 30 -11 31 -10 -3 -294 -2 -294
-52 -10 -52 -9 -7 309 -7 309 -41 -6 c-22 -4 -44 -9 -49 -12 -4 -3 -8 -57 -8
-120 l0 -114 30 0 30 0 0 -185 c0 -208 9 -185 -82 -200 l-38 -6 0 196 c0 188
-1 195 -20 195 -19 0 -20 -7 -20 -199 l0 -199 -67 -10 c-38 -5 -69 -9 -70 -8
-3 2 -12 300 -12 434 -1 81 -5 132 -11 132 -5 0 -10 -8 -11 -17 0 -15 -2 -15
-9 2 -7 17 -9 17 -9 3 -1 -21 -17 -24 -24 -5 -3 6 -6 -40 -6 -103 -1 -63 -4
-152 -8 -198 -6 -79 -5 -83 15 -89 20 -5 22 -12 22 -79 0 -41 0 -77 0 -81 1
-5 -25 -11 -57 -15 -32 -4 -68 -12 -80 -18 -23 -10 -23 -9 -23 78 0 87 0 88
-30 105 l-30 18 0 -37 c0 -33 -2 -36 -22 -29 -46 14 -177 0 -185 -21 -3 -8 -9
-11 -14 -8 -5 3 -9 -3 -9 -13 0 -15 -2 -15 -9 -4 -8 13 -12 13 -27 0 -11 -9
-15 -9 -10 -1 4 6 3 12 -3 12 -7 0 -12 58 -14 158 l-3 157 -2 -157 -2 -157 42
-91 c23 -50 44 -87 47 -82 3 6 112 26 241 47 293 45 527 82 605 95 250 41 309
50 316 50 5 0 9 206 9 465 0 366 -3 465 -12 464 -7 -1 -73 -24 -145 -52z
m-786 -946 c3 -56 3 -55 -82 -66 -27 -3 -62 -8 -77 -11 -28 -6 -28 -5 -28 49
l0 56 58 6 c31 3 64 8 72 9 51 11 56 8 57 -43z"/>
</g>
</svg>
