<?xml version="1.0" standalone="no"?>
<!DOCTYPE svg PUBLIC "-//W3C//DTD SVG 20010904//EN"
 "http://www.w3.org/TR/2001/REC-SVG-20010904/DTD/svg10.dtd">
<svg version="1.0" xmlns="http://www.w3.org/2000/svg"
 width="225.000000pt" height="225.000000pt" viewBox="0 0 225.000000 225.000000"
 preserveAspectRatio="xMidYMid meet">

<g transform="translate(0.000000,225.000000) scale(0.100000,-0.100000)"
fill="#000000" stroke="none">
<path d="M0 1125 l0 -1125 611 0 612 0 -5 43 c-7 60 18 60 27 0 l6 -43 69 0
c84 0 90 7 90 108 0 72 -39 209 -55 195 -4 -5 -5 -3 -1 4 4 7 -3 32 -14 55
-16 32 -17 38 -4 23 l17 -20 -8 20 c-3 11 -8 27 -10 35 -6 30 -32 70 -40 62
-5 -4 -5 -2 -1 5 3 6 16 10 28 8 11 -3 17 -1 14 3 -4 4 -13 7 -19 7 -6 0 -17
11 -23 24 -7 13 -17 27 -23 31 -7 4 -9 19 -5 39 l7 33 17 -43 c19 -50 70 -109
94 -109 9 0 15 -3 14 -7 -2 -5 2 -10 7 -12 6 -3 18 -15 28 -28 10 -13 23 -23
29 -23 6 0 5 7 -3 18 -13 16 -13 16 5 2 20 -16 66 -84 66 -97 0 -5 -13 7 -29
26 -31 37 -50 29 -23 -10 9 -13 15 -32 14 -41 -2 -10 2 -26 8 -38 22 -42 1
-18 -40 45 -23 36 -44 65 -47 65 -2 0 -1 -5 2 -10 8 -13 55 -208 54 -223 -1
-7 -5 -1 -9 13 -6 18 -8 7 -8 -40 1 -36 -3 -77 -7 -93 l-7 -27 406 0 406 0 0
1125 0 1125 -1125 0 -1125 0 0 -1125z m1087 1009 c-3 -3 -12 -4 -19 -1 -8 3
-5 6 6 6 11 1 17 -2 13 -5z m369 -81 c35 -27 62 -55 61 -63 -1 -8 3 -14 9 -13
6 1 10 -9 8 -24 -1 -16 7 -39 22 -58 13 -18 24 -36 24 -41 0 -5 -10 6 -21 24
-32 50 -33 32 -2 -29 45 -88 65 -138 61 -157 -3 -12 -9 -6 -21 22 -9 21 -14
42 -11 47 3 5 0 9 -7 9 -7 0 -9 3 -6 6 8 8 -11 44 -23 44 -8 0 75 -257 88
-270 9 -10 -10 75 -20 87 -7 9 -6 17 4 27 12 12 16 8 26 -30 18 -65 26 -163
13 -144 -9 12 -11 9 -11 -14 0 -22 4 -27 16 -22 14 5 15 4 4 -9 -7 -9 -8 -15
-2 -15 6 0 13 -13 17 -30 4 -16 11 -32 16 -35 5 -4 9 -15 9 -26 0 -10 5 -19
10 -19 6 0 9 -12 8 -27 -1 -27 24 -88 40 -95 17 -7 61 -95 66 -133 5 -37 5
-38 -4 -10 -6 17 -42 75 -81 130 -89 127 -135 223 -160 333 -57 252 -61 265
-113 346 -51 81 -51 81 -24 60 14 -10 24 -22 22 -25 -5 -8 25 -34 31 -27 3 3
-6 17 -19 31 -14 15 -21 29 -16 32 5 3 7 12 4 20 -4 8 -11 12 -17 8 -6 -4 -7
-1 -2 7 5 9 -2 21 -21 38 -18 15 -21 20 -8 13 39 -19 35 2 -7 41 -56 52 -39
48 37 -9z m-395 -93 c10 0 19 -4 19 -10 0 -5 6 -10 13 -10 7 0 29 -11 48 -24
20 -14 48 -28 62 -31 13 -4 39 -22 57 -40 38 -39 48 -85 49 -207 1 -88 4 -86
-88 -68 -56 10 -106 -3 -97 -27 3 -7 -5 -18 -17 -24 -21 -12 -21 -12 -2 -20
17 -6 17 -8 3 -8 -10 -1 -18 -5 -18 -11 0 -10 39 -49 52 -51 4 -1 17 -3 28 -4
11 -1 21 -3 23 -4 1 -2 13 -5 27 -7 13 -2 35 -11 47 -20 21 -13 23 -20 18 -67
-12 -102 -16 -116 -42 -137 -45 -36 -63 -27 -127 66 -21 30 -26 33 -21 14 8
-26 50 -106 67 -127 6 -7 19 -13 29 -13 21 0 36 -37 20 -53 -15 -15 -14 -27 4
-27 22 0 19 -11 -16 -58 -58 -79 -199 -122 -307 -93 -38 11 -92 48 -92 65 0 4
-9 16 -20 28 -11 12 -20 29 -20 37 0 9 -12 36 -25 61 -53 99 -66 133 -61 156
8 30 39 32 59 3 15 -20 16 -20 48 -3 19 9 37 22 41 28 5 6 8 3 8 -10 0 -13 12
-26 36 -38 33 -15 38 -15 53 -2 13 12 20 13 29 4 9 -9 15 -9 24 0 8 8 5 14
-15 21 -15 6 -27 12 -27 13 -1 16 -29 79 -30 66 0 -10 -7 -18 -16 -18 -12 0
-15 7 -12 30 l5 30 -26 -17 c-14 -9 -42 -27 -61 -40 -37 -25 -60 -30 -60 -12
0 5 -4 7 -10 4 -5 -3 -10 3 -10 14 0 11 -5 23 -11 26 -6 5 -9 40 -6 96 4 106
18 129 64 110 32 -13 67 -22 103 -25 14 -1 38 -11 53 -20 15 -10 27 -14 27
-10 0 5 7 1 15 -9 13 -18 14 -18 24 2 16 29 14 48 -14 107 -29 61 -56 80 -133
90 -49 6 -63 16 -43 28 4 3 11 28 15 55 4 28 12 54 19 58 7 4 20 21 30 36 10
15 22 25 26 22 5 -2 11 5 14 16 3 11 15 23 26 26 12 3 21 9 21 14 0 5 7 9 15
9 8 0 15 4 15 9 0 4 11 7 25 6 14 -2 28 2 32 8 5 8 8 8 11 -1 2 -7 12 -12 23
-12z m359 -111 c10 -30 19 -50 20 -44 0 5 4 5 10 -1 20 -20 67 -244 75 -355 4
-63 7 -80 18 -109 3 -8 13 -42 23 -75 21 -72 39 -102 65 -110 11 -4 17 -11 14
-16 -4 -5 -3 -9 2 -9 4 0 21 -11 37 -25 16 -14 32 -25 36 -25 4 0 18 -20 31
-45 21 -39 22 -47 9 -55 -10 -6 -11 -10 -2 -10 6 0 12 -7 12 -15 0 -8 -3 -14
-7 -14 -20 3 -24 -2 -14 -15 34 -40 -33 -60 -111 -33 -38 14 -68 33 -33 22 16
-6 17 -5 5 4 -8 6 -24 8 -35 5 l-20 -6 20 15 c20 15 20 16 1 23 -18 7 -17 8 5
17 13 6 30 9 37 8 19 -3 10 22 -13 36 -11 7 -15 12 -8 13 7 0 -23 35 -67 78
-43 42 -82 88 -85 102 l-7 25 18 -23 c57 -72 67 -81 76 -75 6 3 8 1 5 -4 -4
-6 7 -16 23 -23 16 -7 35 -18 41 -26 6 -8 16 -14 21 -14 5 0 -4 11 -21 25 -16
14 -47 49 -68 78 -20 29 -40 54 -43 57 -19 16 -31 106 -35 260 -4 177 -23 297
-59 385 -19 44 -20 53 -6 39 6 -6 19 -35 30 -65z m-39 -22 c-10 -9 -11 -8 -5
6 3 10 9 15 12 12 3 -3 0 -11 -7 -18z m229 -17 c6 -11 8 -20 6 -20 -3 0 -10 9
-16 20 -6 11 -8 20 -6 20 3 0 10 -9 16 -20z m25 -40 c3 -5 1 -10 -4 -10 -6 0
-11 5 -11 10 0 6 2 10 4 10 3 0 8 -4 11 -10z m56 -140 c16 -56 27 -105 24
-108 -3 -3 -5 0 -5 6 0 7 -5 12 -10 12 -7 0 -7 -6 0 -19 5 -11 10 -30 10 -43
0 -24 41 -149 51 -158 11 -9 21 -50 11 -50 -9 0 -51 89 -70 150 -11 33 -42
218 -45 268 -1 12 -5 22 -9 22 -5 0 -8 10 -8 22 0 43 21 1 51 -102z m-265 14
c2 -36 6 -70 9 -74 3 -5 2 -34 -1 -65 -5 -36 -10 -52 -15 -43 -5 7 -9 -30 -9
-89 0 -56 -4 -105 -10 -108 -14 -9 -2 -149 16 -196 9 -22 14 -43 10 -46 -3 -4
-6 1 -6 10 0 9 -5 19 -12 23 -7 4 -8 3 -4 -4 4 -7 3 -12 -3 -12 -18 0 -38 53
-45 120 -4 36 -10 78 -13 94 -5 28 -4 29 11 14 11 -12 16 -36 17 -80 0 -35 3
-71 7 -80 4 -10 5 38 3 105 -2 66 -7 130 -12 142 -7 14 -8 9 -4 -20 4 -29 3
-36 -4 -25 -6 8 -11 33 -11 55 0 26 3 35 9 27 5 -9 10 4 14 40 4 29 11 78 17
108 5 30 10 89 11 130 1 91 18 73 25 -26z m-596 -14 c10 -6 5 -9 -18 -8 -22 1
-29 4 -20 9 16 11 20 11 38 -1z m434 -125 c7 -19 -5 -19 -30 0 -19 14 -19 14
2 15 12 0 24 -7 28 -15z m471 -37 c2 -13 6 -32 10 -43 4 -14 2 -12 -9 5 -8 14
-15 36 -16 49 0 29 12 21 15 -11z m-308 -65 c-3 -10 -5 -4 -5 12 0 17 2 24 5
18 2 -7 2 -21 0 -30z m-970 -55 c-3 -8 -6 -5 -6 6 -1 11 2 17 5 13 3 -3 4 -12
1 -19z m980 -100 c-3 -8 -6 -5 -6 6 -1 11 2 17 5 13 3 -3 4 -12 1 -19z m-997
-102 c0 -8 -6 -16 -12 -19 -10 -3 -9 -9 3 -23 11 -12 19 -49 24 -104 9 -115
10 -116 23 -132 12 -15 5 -33 -17 -40 -8 -2 -15 -12 -17 -21 -5 -38 -36 -117
-44 -112 -5 3 -11 -5 -13 -17 -4 -16 -5 -13 -4 7 1 18 7 29 15 27 6 -1 12 4
12 12 0 9 -7 12 -20 9 -18 -5 -20 0 -20 41 0 25 5 46 10 46 15 0 13 137 -2
143 -8 3 -6 6 5 6 13 1 17 10 17 39 0 20 5 44 10 52 8 12 10 12 10 1 0 -8 2
-12 5 -9 3 3 1 17 -5 32 -11 29 -4 76 11 76 5 0 9 -6 9 -14z m1360 -204 c0
-14 -15 -8 -15 6 0 4 -4 14 -10 22 -8 13 -7 13 8 1 9 -7 17 -20 17 -29z m-697
-104 c15 -6 27 -14 27 -19 0 -13 -18 -52 -45 -94 -13 -22 -34 -57 -45 -77 -11
-21 -29 -42 -41 -48 -11 -7 -18 -17 -16 -24 3 -6 -2 -21 -10 -31 -15 -20 -15
-20 -10 2 4 19 0 22 -32 25 -32 3 -39 8 -58 48 -12 25 -20 52 -17 61 2 9 -2
32 -11 52 -8 20 -15 50 -15 67 0 28 3 30 34 30 19 0 38 -4 41 -10 9 -15 42
-12 48 4 9 23 101 32 150 14z m734 -64 c-3 -3 -12 -4 -19 -1 -8 3 -5 6 6 6 11
1 17 -2 13 -5z m-197 -33 c0 -5 -16 -18 -35 -30 -42 -24 -45 -17 -7 15 28 25
42 30 42 15z m26 -59 c-18 -16 -18 -16 -6 6 6 13 14 21 18 18 3 -4 -2 -14 -12
-24z m-114 -14 c-7 -7 -12 -8 -12 -2 0 14 12 26 19 19 2 -3 -1 -11 -7 -17z
m-1172 -28 c0 -5 -4 -10 -10 -10 -5 0 -10 5 -10 10 0 6 5 10 10 10 6 0 10 -4
10 -10z m1157 -22 c-3 -8 -6 -5 -6 6 -1 11 2 17 5 13 3 -3 4 -12 1 -19z m-17
-9 c0 -5 -4 -9 -10 -9 -5 0 -10 7 -10 16 0 8 5 12 10 9 6 -3 10 -10 10 -16z
m-1164 -36 c-11 -11 -19 6 -11 24 8 17 8 17 12 0 3 -10 2 -21 -1 -24z m1119
-42 c40 -21 75 -57 75 -77 0 -7 3 -21 6 -31 3 -10 -2 -5 -11 10 -12 21 -20 26
-29 18 -15 -12 -60 24 -51 40 4 5 2 9 -3 9 -5 0 -14 11 -20 25 -14 30 -12 30
33 6z m-1129 -39 c-11 -10 -15 4 -8 28 l7 25 3 -23 c2 -13 1 -26 -2 -30z m510
-81 c-12 -19 -24 -12 -19 10 4 13 9 17 15 11 6 -6 7 -15 4 -21z m-525 -54
c-10 -9 -11 -8 -5 6 3 10 9 15 12 12 3 -3 0 -11 -7 -18z m326 -329 c-3 -8 -6
-5 -6 6 -1 11 2 17 5 13 3 -3 4 -12 1 -19z"/>
<path d="M1482 1985 c12 -14 22 -25 23 -25 0 0 1 9 1 19 0 11 -4 18 -7 15 -4
-2 -10 0 -14 6 -3 5 -10 10 -16 10 -5 0 1 -11 13 -25z"/>
<path d="M1485 1940 c4 -21 34 -58 36 -43 0 4 2 18 3 30 2 13 1 21 -2 18 -3
-2 -13 0 -23 5 -15 8 -17 7 -14 -10z"/>
<path d="M865 1830 c-3 -5 -1 -10 4 -10 6 0 11 5 11 10 0 6 -2 10 -4 10 -3 0
-8 -4 -11 -10z"/>
<path d="M942 1429 c-7 -11 -11 -23 -9 -25 7 -7 29 24 25 36 -2 6 -9 1 -16
-11z"/>
<path d="M905 1360 c3 -5 8 -10 11 -10 2 0 4 5 4 10 0 6 -5 10 -11 10 -5 0 -7
-4 -4 -10z"/>
<path d="M1000 1250 c0 -5 12 -10 26 -10 14 0 23 4 19 10 -3 6 -15 10 -26 10
-10 0 -19 -4 -19 -10z"/>
<path d="M766 1206 c-11 -43 67 -103 99 -76 15 12 41 9 130 -15 28 -7 67 -18
88 -23 20 -6 37 -6 37 -2 0 9 -128 50 -157 50 -10 0 -31 8 -48 18 -16 10 -49
24 -73 31 -24 6 -46 19 -49 27 -8 21 -20 17 -27 -10z"/>
<path d="M1560 1171 c0 -11 49 -60 72 -72 28 -15 22 -6 -27 39 -25 23 -45 38
-45 33z"/>
<path d="M1382 1380 c0 -19 2 -27 5 -17 2 9 2 25 0 35 -3 9 -5 1 -5 -18z"/>
<path d="M411 1005 c0 -16 4 -37 9 -45 8 -12 10 -10 9 10 0 14 -4 34 -9 45 -7
17 -9 16 -9 -10z"/>
<path d="M402 920 c0 -19 2 -27 5 -17 2 9 2 25 0 35 -3 9 -5 1 -5 -18z"/>
<path d="M400 833 c0 -35 16 -51 33 -34 8 8 6 11 -7 11 -9 0 -14 4 -11 10 3 5
1 18 -4 27 -9 15 -10 13 -11 -14z"/>
<path d="M1485 470 c10 -11 20 -18 23 -15 7 6 -18 35 -31 35 -5 0 -2 -9 8 -20z"/>
<path d="M1396 347 c3 -10 9 -15 12 -12 3 3 0 11 -7 18 -10 9 -11 8 -5 -6z"/>
<path d="M1399 265 c28 -77 48 -112 35 -61 -4 16 -8 45 -9 65 -3 49 -4 51 -15
51 -7 0 -7 -6 0 -19 5 -11 10 -23 10 -28 -1 -4 -10 9 -21 30 -11 20 -21 37
-24 37 -2 0 9 -34 24 -75z"/>
<path d="M1431 154 c0 -11 3 -14 6 -6 3 7 2 16 -1 19 -3 4 -6 -2 -5 -13z"/>
</g>
</svg>
