<?xml version="1.0" standalone="no"?>
<!DOCTYPE svg PUBLIC "-//W3C//DTD SVG 20010904//EN"
 "http://www.w3.org/TR/2001/REC-SVG-20010904/DTD/svg10.dtd">
<svg version="1.0" xmlns="http://www.w3.org/2000/svg"
 width="34.000000pt" height="34.000000pt" viewBox="0 0 34.000000 34.000000"
 preserveAspectRatio="xMidYMid meet">

<g transform="translate(0.000000,34.000000) scale(0.100000,-0.100000)"
fill="#000000" stroke="none">
<path d="M163 330 c-12 -5 -24 -18 -28 -30 -6 -20 -8 -20 -24 -6 -10 9 -27 16
-38 16 -26 0 -58 -35 -47 -52 5 -7 7 -41 5 -74 l-3 -61 64 -7 c36 -4 76 -4 90
-1 20 5 26 2 30 -13 9 -34 128 -44 128 -11 0 7 -19 10 -57 7 -39 -2 -58 1 -60
10 -3 6 2 12 11 12 9 0 16 5 16 10 0 6 7 10 15 10 11 0 15 11 15 41 0 22 -4
38 -9 35 -5 -3 -14 1 -21 9 -10 12 -10 18 0 30 18 22 4 64 -26 75 -29 12 -32
12 -61 0z m65 -53 c-2 -17 -10 -22 -33 -22 -35 0 -47 31 -20 51 25 18 57 0 53
-29z m-130 -4 c5 -17 -26 -29 -40 -15 -6 6 -7 15 -3 22 9 14 37 9 43 -7z m47
-23 c3 -5 -1 -10 -9 -10 -9 0 -16 5 -16 10 0 6 4 10 9 10 6 0 13 -4 16 -10z
m15 -75 c0 -22 -4 -25 -40 -25 -36 0 -40 3 -40 25 0 23 4 25 40 25 36 0 40 -2
40 -25z m50 -9 c0 -3 -4 -8 -10 -11 -5 -3 -10 -1 -10 4 0 6 5 11 10 11 6 0 10
-2 10 -4z"/>
<path d="M172 283 c2 -10 12 -18 23 -18 11 0 21 8 23 18 3 13 -3 17 -23 17
-20 0 -26 -4 -23 -17z"/>
<path d="M60 270 c0 -5 7 -10 16 -10 8 0 12 5 9 10 -3 6 -10 10 -16 10 -5 0
-9 -4 -9 -10z"/>
<path d="M302 178 c2 -41 7 -54 21 -56 14 -3 17 5 17 52 0 50 -2 56 -21 56
-18 0 -20 -5 -17 -52z"/>
<path d="M0 174 c0 -8 5 -12 10 -9 6 3 10 10 10 16 0 5 -4 9 -10 9 -5 0 -10
-7 -10 -16z"/>
<path d="M90 90 c0 -5 5 -10 11 -10 6 0 1 -14 -11 -31 -12 -16 -20 -32 -17
-35 2 -3 14 11 25 31 23 37 43 46 40 18 -3 -41 5 -55 11 -18 l7 40 23 -38 c13
-21 26 -36 28 -33 3 3 -5 19 -17 35 -12 17 -17 31 -11 31 6 0 11 5 11 10 0 6
-22 10 -50 10 -27 0 -50 -4 -50 -10z"/>
</g>
</svg>
